<svg xmlns="http://www.w3.org/2000/svg" width="16" height="16" fill="none" xmlns:v="https://vecta.io/nano"><path d="M3.404 3.404a4.5 4.5 0 0 1 6.195-.16l.168.16a4.5 4.5 0 0 1 .573 5.663l-.226.341 2.835 2.835-.707.707-2.835-2.835-.341.226c-1.692 1.121-3.976.977-5.517-.433l-.146-.141a4.5 4.5 0 0 1-.16-6.195l.16-.168zm5.656.707a3.5 3.5 0 0 0-4.819-.124l-.13.124a3.5 3.5 0 0 0-.124 4.819l.124.13a3.5 3.5 0 0 0 4.819.124l.13-.124a3.5 3.5 0 0 0 .124-4.819l-.124-.13z" fill="#000" stroke="#3b4445"/></svg>