<svg xmlns="http://www.w3.org/2000/svg" width="115" height="16" fill="#fff" xmlns:v="https://vecta.io/nano"><path d="M3.895.748h4.6c2.072 0 3.502.414 4.559 1.472.746.745 1.119 1.718 1.119 2.984 0 3.604-3.087 5.654-7.045 5.654H4.371L3.19 15.251H0L3.895.748zm3.398 7.314c2.113 0 3.543-.954 3.543-2.59 0-.476-.166-.89-.477-1.201-.435-.436-1.036-.642-1.989-.642H6.298L5.117 8.062h2.176zm8.635 1.017C15.928 4.748 19.449.5 24.651.5c3.998 0 6.629 2.774 6.629 6.423 0 4.33-3.522 8.577-8.723 8.577-3.998 0-6.629-2.776-6.629-6.421zm12.037-1.948c0-2.157-1.305-3.689-3.688-3.689-3.045 0-5.035 2.922-5.035 5.429 0 2.154 1.306 3.688 3.688 3.688 3.047-.001 5.035-2.922 5.035-5.428zM36.537.748h4.6c2.073 0 3.501.414 4.559 1.472.745.745 1.119 1.718 1.119 2.984 0 3.604-3.087 5.654-7.044 5.654h-2.756l-1.182 4.393h-3.19L36.537.748zm3.398 7.314c2.114 0 3.543-.954 3.543-2.59 0-.476-.166-.89-.476-1.201-.435-.436-1.037-.642-1.99-.642H38.94l-1.18 4.433h2.175zM51.222.748h2.942l4.227 9.22 2.486-9.22h3.149l-3.895 14.503h-2.715l-4.393-9.51-2.547 9.51h-3.15L51.222.748zM72.93.644h3.066l2.3 14.607h-3.274L74.566 12h-6.132l-2.196 3.251h-3.439L72.93.644zm1.263 8.537l-.663-4.787-3.19 4.787h3.853zM84.59.748h3.315l2.092 6.133L95.405.748h3.688l-3.896 14.503h-3.232l2.527-9.468-5.676 6.195h-.083l-2.322-6.133-2.527 9.405h-3.191L84.59.748zm18.6 0h10.836l-.768 2.839h-7.666l-.787 2.962h6.734l-.767 2.798h-6.733l-.829 3.066h7.8l-.767 2.837H99.307L103.203.748h-.013z"/></svg>