<svg xmlns="http://www.w3.org/2000/svg" width="48" height="48" fill="none" xmlns:v="https://vecta.io/nano"><path d="M0 0H48V48H0V0Z" fill="#f8fafa"/><path d="M48 0V48H0V0H48ZM1 47H47V1H1V47Z" fill="#dadfe0"/><path d="M27.768 26.204v3.05c.809.265 2.257.467 3.688.467 1.51 0 2.692-.342 3.548-1.027s1.292-1.619 1.292-2.801c0-1.852-.98-2.941-3.097-3.439l-1.447-.342c-.42-.109-.622-.264-.622-.498 0-.389.436-.607 1.198-.607.405 0 .949.047 1.65.156l1.758.358v-2.91c-.934-.233-2.459-.436-3.455-.436-1.447 0-2.599.342-3.424 1.027-.825.7-1.245 1.65-1.245 2.848 0 1.821.996 2.895 3.128 3.377l1.245.28c.638.14.778.264.778.514 0 .389-.451.607-1.323.607-.514 0-1.12-.062-1.821-.187s-1.323-.265-1.852-.436zm-15.305-.167v-2.485h5.546v5.981h-2.306l.01-1.691c-.472 1.05-1.936 1.877-3.53 1.877-1.587 0-2.848-.498-3.782-1.494C7.467 27.246 7 25.908 7 24.212c0-1.852.607-3.315 1.805-4.404s2.801-1.634 4.824-1.634c.498 0 1.074.047 1.727.156.638.109 1.136.218 1.463.358v2.973c-1.136-.358-2.194-.56-3.004-.56-2.039 0-3.066 1.012-3.066 2.988 0 1.79.778 2.677 2.335 2.677.462 0 1.143-.252 1.445-.726h-2.067zM41 27.772a1.9 1.9 0 0 0-1.899-1.899 1.9 1.9 0 0 0-1.899 1.899 1.9 1.9 0 0 0 1.899 1.899A1.9 1.9 0 0 0 41 27.772zm-21.855 1.762V18.36h3.579v8.264h3.906v2.91h-7.486z" fill="#061ab1"/></svg>